<svg id="Layer_1" data-name="Layer 1" xmlns="http://www.w3.org/2000/svg" viewBox="0 0 390.32 319.91"><defs><style>.cls-1{fill:#0c95e0;}</style></defs><path class="cls-1" d="M1211.61,1443.79c-5.43-2.06-13.17-4.53-20.52-7.86-42.11-19.11-83.74-39.35-126.41-57.07-12.09-5-27.78-6-40.76-3.42-42.3,8.33-84.08,19.3-126.15,28.89-7.83,1.78-16,1.88-24.09,2.75,4.58-6.15,8.45-13,13.87-18.32,25.81-25.11,51.56-50.32,78.34-74.37,12.42-11.14,12.94-19.79,3.51-33.56-26.7-39-51.91-79-77.51-118.82-9.72-15.1-4.52-33.36,11.92-37.94,4.53-1.26,12.63,4,16.7,8.38,34.08,37.15,68.46,74.08,100.91,112.63,15.08,17.91,30.76,29.41,54.93,26.46a65.07,65.07,0,0,1,18.47.71c12.78,2.18,25.42,5.1,38.12,7.72-5.66,11.2-9.66,23.76-17.39,33.28-10.11,12.44-1,15.68,6.72,20.59,42.52,27,85.16,53.86,127.5,81.17,5.53,3.57,9.52,9.52,14.23,14.36-5.61,2-11.13,4.28-16.85,5.8C1236.23,1438.07,1225.2,1440.52,1211.61,1443.79Z" transform="translate(-873.68 -1123.88)"/></svg>